<?xml version="1.0" encoding="utf-8"?>
<!-- Generator: Adobe Illustrator 27.5.0, SVG Export Plug-In . SVG Version: 6.00 Build 0)  -->
<svg version="1.1" xmlns="http://www.w3.org/2000/svg" xmlns:xlink="http://www.w3.org/1999/xlink" x="0px" y="0px"
	 viewBox="0 0 750 500" style="enable-background:new 0 0 750 500;" xml:space="preserve">
<g id="BACKGROUND">
	<rect style="fill:#DAE9EA;" width="750" height="500"/>
</g>
<g id="OBJECTS">
	<rect y="412.905" style="fill:#B8D2D3;" width="750" height="87.095"/>
	<g>
		<path style="fill:#EF3F1D;" d="M433.883,418.753h-83.913c-16.636,0-30.123-13.486-30.123-30.123v-43.842
			c0-16.637,13.487-30.123,30.123-30.123h83.913c16.637,0,30.123,13.487,30.123,30.123v43.842
			C464.007,405.267,450.52,418.753,433.883,418.753z"/>
		<path style="fill:#FF7664;" d="M356.511,408.676h-0.35c-9.727,0-17.613-7.886-17.613-17.613v-46.743
			c0-9.727,7.885-17.613,17.613-17.613h0.35c9.727,0,17.613,7.885,17.613,17.613v46.743
			C374.124,400.79,366.238,408.676,356.511,408.676z"/>
		<path style="fill:#CE2B15;" d="M427.6,414.019h-33.669v-92.654H427.6c13.504,0,24.452,10.947,24.452,24.452v43.751
			C452.052,403.072,441.105,414.019,427.6,414.019z"/>
		<polygon style="fill:#9B3426;" points="319.848,371.964 464.007,376.742 464.007,367.367 319.848,367.367 		"/>
		<path style="fill:#EF3F1D;" d="M457.846,446.426H326.009c-3.402,0-6.161-2.758-6.161-6.161v-12.005
			c0-3.403,2.758-6.161,6.161-6.161h131.837c3.403,0,6.161,2.758,6.161,6.161v12.005
			C464.007,443.667,461.248,446.426,457.846,446.426z"/>
		<g>
			<rect x="343.906" y="414.019" style="fill:#EF3F1D;" width="11.989" height="11.989"/>
			<rect x="371.924" y="414.019" style="fill:#EF3F1D;" width="11.989" height="11.989"/>
			<rect x="399.942" y="414.019" style="fill:#EF3F1D;" width="11.989" height="11.989"/>
			<rect x="427.959" y="414.019" style="fill:#EF3F1D;" width="11.989" height="11.989"/>
		</g>
		<rect x="334.768" y="422.099" style="fill:#FF7664;" width="43.15" height="24.327"/>
		<rect x="391.927" y="422.099" style="fill:#CE2B15;" width="59.075" height="24.327"/>
		<path style="fill:#EF3F1D;" d="M464.468,370.423H319.386c-2.031,0-3.677-1.646-3.677-3.677v-0.073
			c0-2.031,1.646-3.677,3.677-3.677h145.082c2.031,0,3.677,1.646,3.677,3.677v0.073
			C468.145,368.776,466.499,370.423,464.468,370.423z"/>
		<g>
			<path style="fill:#FFFFFF;" d="M391.927,339.572l-27.794,27.794l27.794,27.795l27.794-27.795L391.927,339.572z M366.755,367.366
				l25.172-25.173l25.173,25.173l-25.173,25.173L366.755,367.366z"/>
			<g>
				<path style="fill:#FFFFFF;" d="M399.29,365.694c0,0,3.51-1.032,0.623-6.401C397.844,361.688,399.827,364.744,399.29,365.694z"/>
				<path style="fill:#FFFFFF;" d="M401.354,366.231c-1.487,4.79-7.185,3.304-4.873-3.304c2.313-6.607-3.854-10.654-3.854-10.654
					c0.881,7.157-10.748,7.157-10.748,18.615c0,4.196,2.596,7.783,6.269,9.249c-4.833-4.202,1.417-6.864,1.809-10.934
					c0,0,1.734,1.755,0.991,4.088c-0.743,2.333,1.652,3.076,2.251,1.383c0.599-1.693,2.023-1.239,2.023-1.239
					s-1.115,0.785-0.702,1.982c0.369,1.069,0.752,3.717-0.55,5.198c3.007-0.656,5.507-2.672,6.822-5.371
					c0.001-0.001,0.002-0.002,0.002-0.003C403.07,371.342,401.354,366.231,401.354,366.231z"/>
			</g>
		</g>
		<g>
			<path style="fill:#EF3F1D;" d="M441.455,291.203h-99.056c-2.031,0-3.677-1.646-3.677-3.677v-2.28
				c0-2.031,1.646-3.677,3.677-3.677h99.056c2.031,0,3.677,1.646,3.677,3.677v2.28C445.133,289.557,443.486,291.203,441.455,291.203
				z"/>
			<rect x="349.081" y="281.568" style="fill:#9B3426;" width="85.639" height="9.635"/>
			<g>
				<polygon style="fill:#EF3F1D;" points="347.843,291.203 360.419,301.622 360.419,317.716 368.492,317.716 368.492,296.996 
					349.081,281.568 				"/>
				<polygon style="fill:#EF3F1D;" points="434.773,281.568 415.362,296.996 415.362,317.716 423.436,317.716 423.436,301.622 
					436.011,291.203 				"/>
			</g>
		</g>
		<g>
			<rect x="383.304" y="310.144" style="fill:#FFC943;" width="17.247" height="4.506"/>
			<rect x="387.737" y="302.381" style="fill:#FFC943;" width="8.381" height="7.763"/>
			<rect x="385.332" y="298.935" style="fill:#FFC943;" width="13.19" height="3.446"/>
			<path style="fill:#3C3C5B;" d="M381.816,295.927v1.873c0,0.777,0.63,1.408,1.408,1.408h17.406c0.778,0,1.408-0.63,1.408-1.408
				v-1.873c0-0.777-0.63-1.408-1.408-1.408h-17.406C382.447,294.52,381.816,295.15,381.816,295.927z"/>
			<polygon style="fill:#FF833E;" points="387.737,303.322 396.117,304.484 396.117,302.381 387.737,302.381 			"/>
		</g>
	</g>
	<g>
		<rect x="503.14" y="78.523" style="fill:#EF3F1D;" width="56.411" height="33.087"/>
		<rect x="503.14" y="78.523" style="fill:#9B3426;" width="12.221" height="33.087"/>
		<rect x="547.329" y="78.523" style="fill:#9B3426;" width="12.221" height="33.087"/>
		<g>
			<rect x="527.468" y="89.408" style="fill:#DAE9EA;" width="7.754" height="11.197"/>
			<rect x="535.222" y="94.013" style="fill:#91AFDB;" width="4.294" height="1.985"/>
			<rect x="539.082" y="92.876" style="fill:#DAE9EA;" width="2.141" height="4.261"/>
			<rect x="527.468" y="97.08" style="fill:#91AFDB;" width="7.754" height="3.524"/>
			<rect x="527.468" y="89.408" style="fill:#91AFDB;" width="7.754" height="3.524"/>
			<rect x="524.474" y="86.129" style="fill:#DAE9EA;" width="13.742" height="5.041"/>
			<g>
				<rect x="525.607" y="86.129" style="fill:#91AFDB;" width="0.299" height="5.041"/>
				<rect x="527.842" y="86.129" style="fill:#91AFDB;" width="0.299" height="5.041"/>
				<rect x="530.078" y="86.129" style="fill:#91AFDB;" width="0.299" height="5.041"/>
				<rect x="532.313" y="86.129" style="fill:#91AFDB;" width="0.299" height="5.041"/>
				<rect x="534.549" y="86.129" style="fill:#91AFDB;" width="0.299" height="5.041"/>
				<rect x="536.784" y="86.129" style="fill:#91AFDB;" width="0.299" height="5.041"/>
			</g>
			<path style="fill:#DAE9EA;" d="M532.448,99.231h-2.206c-5.695,0-10.311,4.616-10.311,10.311v2.671h22.828v-2.671
				C542.759,103.847,538.143,99.231,532.448,99.231z"/>
			<path style="fill:#FFFFFF;" d="M528.667,101.334c0.527,0.912-0.212,2.325-1.651,3.155c-1.438,0.83-3.031,0.764-3.558-0.148
				c-0.527-0.912,0.212-2.325,1.651-3.155C526.548,100.356,528.141,100.422,528.667,101.334z"/>
		</g>
		<g>
			<polygon style="fill:#EF3F1D;" points="511.661,82.672 503.14,78.523 503.14,111.61 511.661,111.61 			"/>
			<path style="fill:#CE2B15;" d="M511.661,90.032h-9.699c-1.469,0-2.66-1.191-2.66-2.66v-0.569c0-1.469,1.191-2.66,2.66-2.66h9.699
				V90.032z"/>
			<path style="fill:#CE2B15;" d="M511.661,111.61h-9.699c-1.469,0-2.66-1.191-2.66-2.66v-0.569c0-1.469,1.191-2.66,2.66-2.66h9.699
				V111.61z"/>
		</g>
		<g>
			<polygon style="fill:#EF3F1D;" points="551.034,82.672 559.555,78.523 559.555,111.61 551.034,111.61 			"/>
			<path style="fill:#CE2B15;" d="M551.034,90.032h9.699c1.469,0,2.66-1.191,2.66-2.66v-0.569c0-1.469-1.191-2.66-2.66-2.66h-9.699
				V90.032z"/>
			<path style="fill:#CE2B15;" d="M551.034,111.61h9.699c1.469,0,2.66-1.191,2.66-2.66v-0.569c0-1.469-1.191-2.66-2.66-2.66h-9.699
				V111.61z"/>
		</g>
		<path style="fill:#EF3F1D;" d="M552.978,111.579h-43.261c-14.423,0-26.116,11.692-26.116,26.116v302.998
			c0,3.166,2.567,5.733,5.733,5.733h84.027c3.166,0,5.733-2.567,5.733-5.733V137.695
			C579.094,123.271,567.401,111.579,552.978,111.579z"/>
		<path style="fill:#CE2B15;" d="M565.209,446.426h-36.624V143.967c0-8.113,6.577-14.689,14.689-14.689h7.246
			c8.112,0,14.689,6.577,14.689,14.689V446.426z"/>
		<g>
			<path style="fill:#FF7664;" d="M506.523,437.884h-2.985c-3.342,0-6.052-2.71-6.052-6.052V137.1c0-3.342,2.71-6.052,6.052-6.052
				h2.985c3.342,0,6.052,2.71,6.052,6.052v294.733C512.575,435.175,509.865,437.884,506.523,437.884z"/>
		</g>
		<polygon style="fill:#9B3426;" points="483.557,174.292 579.094,179.07 579.094,169.695 483.557,169.695 		"/>
		<path style="fill:#EF3F1D;" d="M579.555,172.751h-96.46c-2.031,0-3.677-1.646-3.677-3.677V169c0-2.031,1.646-3.677,3.677-3.677
			h96.46c2.031,0,3.677,1.646,3.677,3.677v0.073C583.232,171.105,581.586,172.751,579.555,172.751z"/>
		<polygon style="fill:#9B3426;" points="483.557,419.682 579.094,424.46 579.094,415.085 483.557,415.085 		"/>
		<path style="fill:#EF3F1D;" d="M579.555,418.141h-96.46c-2.031,0-3.677-1.646-3.677-3.677v-0.073c0-2.031,1.646-3.677,3.677-3.677
			h96.46c2.031,0,3.677,1.646,3.677,3.677v0.073C583.232,416.495,581.586,418.141,579.555,418.141z"/>
		<g>
			<path style="fill:#FFFFFF;" d="M531.347,243.868l-35.134,35.134l35.134,35.134l35.134-35.134L531.347,243.868z M499.528,279.002
				l31.819-31.82l31.82,31.82l-31.82,31.82L499.528,279.002z"/>
			<g>
				<path style="fill:#FFFFFF;" d="M540.654,276.888c0,0,4.437-1.305,0.788-8.091C538.827,271.825,541.333,275.688,540.654,276.888z
					"/>
				<path style="fill:#FFFFFF;" d="M543.264,277.567c-1.879,6.055-9.082,4.176-6.159-4.176c2.923-8.352-4.872-13.467-4.872-13.467
					c1.114,9.047-13.586,9.047-13.586,23.531c0,5.304,3.282,9.838,7.924,11.691c-6.109-5.312,1.792-8.676,2.286-13.821
					c0,0,2.192,2.218,1.253,5.168c-0.94,2.949,2.088,3.889,2.845,1.749c0.757-2.14,2.558-1.566,2.558-1.566
					s-1.409,0.992-0.887,2.505c0.466,1.352,0.951,4.699-0.696,6.571c3.802-0.83,6.961-3.378,8.624-6.79
					c0.001-0.001,0.002-0.003,0.003-0.004C545.433,284.028,543.264,277.567,543.264,277.567z"/>
			</g>
		</g>
	</g>
	<g>
		<rect x="79.394" y="169.037" style="fill:#9B3426;" width="29.216" height="38.849"/>
		<g>
			<rect x="85.378" y="197.289" style="fill:#FFC943;" width="17.247" height="4.506"/>
			<rect x="89.812" y="189.526" style="fill:#FFC943;" width="8.381" height="7.763"/>
			<rect x="87.407" y="186.08" style="fill:#FFC943;" width="13.19" height="3.446"/>
			<path style="fill:#3C3C5B;" d="M83.891,183.072v1.873c0,0.777,0.63,1.408,1.408,1.408h17.406c0.778,0,1.408-0.63,1.408-1.408
				v-1.873c0-0.777-0.63-1.408-1.408-1.408H85.299C84.521,181.665,83.891,182.295,83.891,183.072z"/>
			<polygon style="fill:#FF833E;" points="89.812,190.467 98.192,191.629 98.192,189.526 89.812,189.526 			"/>
		</g>
		<path style="fill:#EF3F1D;" d="M119.319,165.435h-4.485H72.943h-4.258l0,0c-2.352,0-4.258,1.906-4.258,4.258v46.375h8.516v-42.117
			h41.891v42.117h8.516v-46.602C123.35,167.24,121.545,165.435,119.319,165.435L119.319,165.435z"/>
		<g>
			<polygon style="fill:#9B3426;" points="38.197,433.559 48.733,422.92 139.168,422.92 149.807,433.559 			"/>
			<rect x="38.197" y="433.559" style="fill:#EF3F1D;" width="111.61" height="12.866"/>
		</g>
		<polygon style="fill:#EF3F1D;" points="102.285,434.401 85.718,434.401 89.963,422.078 98.041,422.078 		"/>
		<g>
			<polygon style="fill:#EF3F1D;" points="54.539,422.078 46.256,434.401 62.823,434.401 62.617,422.078 			"/>
			<polygon style="fill:#EF3F1D;" points="133.558,422.078 125.48,422.078 125.48,434.401 142.047,434.401 			"/>
		</g>
		<path style="fill:#EF3F1D;" d="M115.632,201.795H72.371c-14.423,0-26.116,11.692-26.116,26.116v193.666
			c0,3.166,2.567,5.733,5.733,5.733h84.027c3.166,0,5.733-2.567,5.733-5.733V227.911
			C141.748,213.487,130.056,201.795,115.632,201.795z"/>
		<path style="fill:#CE2B15;" d="M109.551,418.769L109.551,418.769c-10.113,0-18.312-8.198-18.312-18.312V234.183
			c0-8.113,6.576-14.689,14.689-14.689h7.246c8.112,0,14.689,6.576,14.689,14.689v166.274
			C127.863,410.57,119.665,418.769,109.551,418.769z"/>
		<g>
			<path style="fill:#FF7664;" d="M69.178,418.769h-2.985c-3.342,0-6.052-2.71-6.052-6.052V227.315c0-3.342,2.71-6.052,6.052-6.052
				h2.985c3.342,0,6.052,2.71,6.052,6.052v185.402C75.229,416.059,72.52,418.769,69.178,418.769z"/>
		</g>
		<polygon style="fill:#9B3426;" points="46.211,329.919 141.748,334.698 141.748,325.322 46.211,325.322 		"/>
		<path style="fill:#EF3F1D;" d="M142.21,328.379H45.75c-2.031,0-3.677-1.646-3.677-3.677v-0.073c0-2.031,1.646-3.677,3.677-3.677
			h96.46c2.031,0,3.677,1.646,3.677,3.677v0.073C145.887,326.732,144.241,328.379,142.21,328.379z"/>
		<g>
			<path style="fill:#FFFFFF;" d="M94.002,297.528l-27.794,27.794l27.794,27.794l27.795-27.794L94.002,297.528z M68.829,325.322
				l25.173-25.173l25.173,25.173l-25.173,25.173L68.829,325.322z"/>
			<g>
				<path style="fill:#FFFFFF;" d="M101.364,323.65c0,0,3.51-1.032,0.623-6.401C99.919,319.644,101.901,322.7,101.364,323.65z"/>
				<path style="fill:#FFFFFF;" d="M103.429,324.186c-1.487,4.79-7.185,3.304-4.873-3.303c2.313-6.607-3.854-10.654-3.854-10.654
					c0.881,7.158-10.748,7.158-10.748,18.615c0,4.196,2.596,7.783,6.269,9.249c-4.833-4.203,1.417-6.864,1.809-10.934
					c0,0,1.734,1.755,0.991,4.088c-0.743,2.333,1.652,3.076,2.251,1.383c0.599-1.693,2.023-1.239,2.023-1.239
					s-1.115,0.785-0.702,1.982c0.369,1.069,0.752,3.717-0.55,5.198c3.007-0.656,5.507-2.672,6.822-5.371
					c0.001-0.001,0.002-0.002,0.002-0.003C105.145,329.298,103.429,324.186,103.429,324.186z"/>
			</g>
		</g>
	</g>
	<g>
		<g>
			<rect x="229.804" y="55.502" style="fill:#FFC943;" width="10.048" height="23.75"/>
			<rect x="239.852" y="65.679" style="fill:#FF833E;" width="5.565" height="2.572"/>
			<rect x="244.852" y="64.205" style="fill:#3C3C5B;" width="2.774" height="5.521"/>
			
				<rect x="224.247" y="65.679" transform="matrix(-1 -1.224647e-16 1.224647e-16 -1 454.0594 133.9303)" style="fill:#FF833E;" width="5.565" height="2.572"/>
			
				<rect x="222.037" y="64.205" transform="matrix(-1 -1.224647e-16 1.224647e-16 -1 446.8476 133.9303)" style="fill:#3C3C5B;" width="2.775" height="5.521"/>
			<rect x="229.804" y="74.685" style="fill:#FF833E;" width="10.048" height="4.566"/>
			<rect x="229.804" y="55.502" style="fill:#FF833E;" width="10.048" height="4.896"/>
			<rect x="225.924" y="51.253" style="fill:#3C3C5B;" width="17.806" height="6.532"/>
			<g>
				<rect x="227.392" y="51.253" style="fill:#8DB2B2;" width="0.388" height="6.532"/>
				<rect x="230.289" y="51.253" style="fill:#8DB2B2;" width="0.388" height="6.532"/>
				<rect x="233.185" y="51.253" style="fill:#8DB2B2;" width="0.388" height="6.532"/>
				<rect x="236.082" y="51.253" style="fill:#8DB2B2;" width="0.388" height="6.532"/>
				<rect x="238.979" y="51.253" style="fill:#8DB2B2;" width="0.388" height="6.532"/>
				<rect x="241.875" y="51.253" style="fill:#8DB2B2;" width="0.388" height="6.532"/>
			</g>
			<path style="fill:#FFC943;" d="M240.105,77.472H229.55c-5.253,0-9.512,4.259-9.512,9.512v7.309h29.58v-7.309
				C249.617,81.731,245.359,77.472,240.105,77.472z"/>
			<path style="fill:#FFD580;" d="M231.358,80.197c0.682,1.182-0.275,3.012-2.139,4.088c-1.864,1.076-3.928,0.99-4.61-0.192
				c-0.682-1.182,0.275-3.012,2.139-4.088C228.611,78.93,230.675,79.016,231.358,80.197z"/>
		</g>
		<path style="fill:#CE2B15;" d="M253.038,93.759h-36.42c-6.098,0-11.266,4.49-12.117,10.528l-2.318,16.433h65.291l-2.318-16.433
			C264.303,98.249,259.136,93.759,253.038,93.759z"/>
		<path style="fill:#EF3F1D;" d="M226.585,106.327h16.155c31.598,0,57.213,25.615,57.213,57.213v282.886H169.372V163.54
			C169.372,131.942,194.987,106.327,226.585,106.327z"/>
		<rect x="179.953" y="165.267" style="fill:#FF7664;" width="29.032" height="268.292"/>
		<path style="fill:#CE2B15;" d="M269.929,433.559h-29.371c-8.885,0-16.089-7.203-16.089-16.089V136.809
			c0-8.886,7.203-16.089,16.089-16.089h0c25.107,0,45.46,20.353,45.46,45.46v251.29
			C286.017,426.356,278.814,433.559,269.929,433.559z"/>
		<g>
			<polygon style="fill:#9B3426;" points="169.38,170.738 299.953,175.516 299.953,166.14 169.38,166.14 			"/>
			<path style="fill:#EF3F1D;" d="M300.414,169.197H168.918c-2.031,0-3.677-1.646-3.677-3.677v-0.073
				c0-2.031,1.646-3.677,3.677-3.677h131.496c2.031,0,3.677,1.646,3.677,3.677v0.073
				C304.092,167.55,302.445,169.197,300.414,169.197z"/>
		</g>
		<g>
			<polygon style="fill:#9B3426;" points="169.38,435.654 299.953,440.433 299.953,431.057 169.38,431.057 			"/>
			<path style="fill:#EF3F1D;" d="M300.414,434.114H168.918c-2.031,0-3.677-1.646-3.677-3.677v-0.073
				c0-2.031,1.646-3.677,3.677-3.677h131.496c2.031,0,3.677,1.647,3.677,3.677v0.073
				C304.092,432.467,302.445,434.114,300.414,434.114z"/>
		</g>
		<g>
			<path style="fill:#FFFFFF;" d="M234.663,237.256l-46.71,46.71l46.71,46.71l46.71-46.71L234.663,237.256z M192.359,283.965
				l42.304-42.304l42.304,42.304l-42.304,42.304L192.359,283.965z"/>
			<g>
				<path style="fill:#FFFFFF;" d="M247.036,281.155c0,0,5.899-1.735,1.047-10.756C244.607,274.423,247.938,279.559,247.036,281.155
					z"/>
				<path style="fill:#FFFFFF;" d="M250.506,282.057c-2.498,8.05-12.075,5.552-8.189-5.552c3.886-11.103-6.477-17.904-6.477-17.904
					c1.48,12.028-18.063,12.028-18.063,31.284c0,7.051,4.363,13.079,10.535,15.543c-8.122-7.062,2.382-11.535,3.04-18.375
					c0,0,2.915,2.949,1.665,6.87c-1.249,3.921,2.776,5.17,3.782,2.325c1.006-2.845,3.4-2.082,3.4-2.082s-1.874,1.319-1.18,3.331
					c0.62,1.797,1.264,6.247-0.925,8.736c5.054-1.103,9.254-4.491,11.465-9.027c0.001-0.002,0.003-0.004,0.004-0.006
					C253.389,290.647,250.506,282.057,250.506,282.057z"/>
			</g>
		</g>
		
			<ellipse transform="matrix(0.8222 -0.5692 0.5692 0.8222 -43.1295 138.4332)" style="fill:#FF7664;" cx="200.015" cy="138.251" rx="17.417" ry="11.324"/>
		<g>
			<g>
				
					<ellipse transform="matrix(0.9999 -0.013 0.013 0.9999 -0.8484 3.322)" style="fill:#3C3C5B;" cx="255.269" cy="66.965" rx="8.91" ry="8.91"/>
			</g>
			<g>
				<path style="fill:#606087;" d="M263.072,66.965c0,4.31-3.494,7.803-7.803,7.803c-4.31,0-7.803-3.494-7.803-7.803
					s3.494-7.803,7.803-7.803C259.578,59.162,263.072,62.655,263.072,66.965z"/>
			</g>
			<g>
				<path style="fill:#FFFFFF;" d="M261.966,66.965c0,3.699-2.998,6.697-6.697,6.697c-3.698,0-6.697-2.998-6.697-6.697
					c0-3.699,2.998-6.697,6.697-6.697C258.967,60.268,261.966,63.267,261.966,66.965z"/>
			</g>
			<g>
				<path style="fill:#EF3F1D;" d="M255.268,66.965l0.015-5.813c1.538,0.004,3.014,0.618,4.101,1.708
					c1.087,1.089,1.697,2.567,1.697,4.105H255.268z"/>
			</g>
			<g>
				<path style="fill:#7B7BAD;" d="M256.317,66.965c0,0.579-0.469,1.048-1.048,1.048c-0.579,0-1.048-0.469-1.048-1.048
					s0.469-1.048,1.048-1.048C255.848,65.917,256.317,66.386,256.317,66.965z"/>
			</g>
			<g>
				<path style="fill:#3C3C5B;" d="M255.499,66.418c0.321,0.104,0.498,0.449,0.394,0.77c-0.104,0.321-0.449,0.498-0.77,0.394
					c-0.321-0.104-4.48-2.091-4.48-2.091S255.177,66.314,255.499,66.418z"/>
			</g>
		</g>
	</g>
	<g>
		<rect x="652.692" y="198.615" style="fill:#91AFDB;" width="14.452" height="23.402"/>
		<circle style="fill:#6685AA;" cx="659.918" cy="210.317" r="8.839"/>
		<circle style="fill:#3C3C5B;" cx="659.918" cy="210.317" r="5.331"/>
		<path style="fill:#EF3F1D;" d="M688.74,218.602v-27.41h-28.844h-28.844v27.41l-20.367,22.329l49.211-0.331l49.211,0.331
			L688.74,218.602z M674.499,210.591c0,6.315-5.119,11.434-11.434,11.434h-6.298c-6.315,0-11.434-5.119-11.434-11.434v-14.576
			h29.165V210.591z"/>
		<polygon style="fill:#FF7664;" points="641.146,193.777 641.146,241.242 615.719,241.242 635.3,219.112 635.3,194.725 		"/>
		<polygon style="fill:#9B3426;" points="645.333,201.322 645.333,196.015 674.499,196.015 674.499,203.355 688.74,204.347 
			688.74,191.192 659.896,191.192 631.052,191.192 631.052,200.327 		"/>
		<rect x="612.172" y="425.434" style="fill:#EF3F1D;" width="18.868" height="20.991"/>
		<rect x="637.713" y="425.434" style="fill:#EF3F1D;" width="18.868" height="20.991"/>
		<rect x="663.255" y="425.434" style="fill:#EF3F1D;" width="18.868" height="20.991"/>
		<rect x="688.796" y="425.434" style="fill:#EF3F1D;" width="18.868" height="20.991"/>
		<rect x="612.172" y="236.87" style="fill:#EF3F1D;" width="95.493" height="202.585"/>
		<path style="fill:#CE2B15;" d="M693.78,426.814h-36.624V251.643c0-8.113,6.576-14.689,14.689-14.689h7.246
			c8.112,0,14.689,6.577,14.689,14.689V426.814z"/>
		<g>
			<path style="fill:#FF7664;" d="M635.094,430.914h-2.985c-3.342,0-6.052-2.71-6.052-6.052V245.138c0-3.342,2.71-6.052,6.052-6.052
				h2.985c3.342,0,6.052,2.709,6.052,6.052v179.725C641.146,428.205,638.436,430.914,635.094,430.914z"/>
		</g>
		<polygon style="fill:#9B3426;" points="612.128,245.839 707.664,250.617 707.664,241.242 612.128,241.242 		"/>
		<path style="fill:#EF3F1D;" d="M708.126,244.298h-96.46c-2.031,0-3.677-1.646-3.677-3.677v-0.073c0-2.031,1.646-3.677,3.677-3.677
			h96.46c2.031,0,3.677,1.646,3.677,3.677v0.073C711.803,242.652,710.157,244.298,708.126,244.298z"/>
		<polygon style="fill:#9B3426;" points="612.128,432.069 707.664,436.847 707.664,427.471 612.128,427.471 		"/>
		<path style="fill:#EF3F1D;" d="M708.126,430.528h-96.46c-2.031,0-3.677-1.646-3.677-3.677v-0.073c0-2.031,1.646-3.677,3.677-3.677
			h96.46c2.031,0,3.677,1.646,3.677,3.677v0.073C711.803,428.881,710.157,430.528,708.126,430.528z"/>
		<g>
			<path style="fill:#FFFFFF;" d="M659.918,302.883l-28.878,28.878l28.878,28.878l28.878-28.878L659.918,302.883z M633.764,331.761
				l26.154-26.154l26.154,26.154l-26.154,26.154L633.764,331.761z"/>
			<g>
				<path style="fill:#FFFFFF;" d="M667.568,330.023c0,0,3.647-1.073,0.648-6.65C666.066,325.862,668.126,329.037,667.568,330.023z"
					/>
				<path style="fill:#FFFFFF;" d="M669.713,330.581c-1.544,4.977-7.465,3.432-5.063-3.432c2.403-6.865-4.004-11.069-4.004-11.069
					c0.915,7.437-11.167,7.437-11.167,19.341c0,4.359,2.698,8.086,6.513,9.61c-5.022-4.366,1.473-7.131,1.879-11.36
					c0,0,1.802,1.823,1.03,4.247c-0.772,2.424,1.716,3.196,2.338,1.437c0.622-1.759,2.102-1.287,2.102-1.287
					s-1.158,0.815-0.729,2.059c0.383,1.111,0.782,3.862-0.572,5.401c3.125-0.682,5.721-2.777,7.088-5.581
					c0.001-0.001,0.002-0.002,0.002-0.003C671.496,335.892,669.713,330.581,669.713,330.581z"/>
			</g>
		</g>
		<path style="fill:#CE2B15;" d="M687.125,198.615h-54.414c-2.672,0-4.839-2.166-4.839-4.839l0,0c0-2.672,2.166-4.839,4.839-4.839
			h54.414c2.672,0,4.839,2.166,4.839,4.839l0,0C691.964,196.449,689.797,198.615,687.125,198.615z"/>
	</g>
</g>
</svg>
