<?xml version="1.0" encoding="utf-8"?>
<!-- Generator: Adobe Illustrator 27.5.0, SVG Export Plug-In . SVG Version: 6.00 Build 0)  -->
<svg version="1.1" xmlns="http://www.w3.org/2000/svg" xmlns:xlink="http://www.w3.org/1999/xlink" x="0px" y="0px"
	 viewBox="0 0 500 500" style="enable-background:new 0 0 500 500;" xml:space="preserve">
<g id="BACKGROUND">
	<rect id="XMLID_1_" style="fill:#E3FCF7;" width="500" height="500"/>
</g>
<g id="OBJECTS">
	<circle style="fill:#A2F4E4;" cx="252.029" cy="197.056" r="179.976"/>
	<g>
		<rect x="308.732" y="210.35" style="fill:#FFFFFF;" width="111.895" height="6.277"/>
		<g>
			<rect x="343.359" y="207.553" style="fill:#4ABDAD;" width="37.091" height="2.797"/>
			<rect x="343.359" y="205.927" style="fill:#FFFFFF;" width="37.091" height="1.626"/>
			<path style="fill:#4ABDAD;" d="M380.45,197.655v8.271h-37.091v-8.271H380.45z M362.402,203.715v-4.266h-16.375v4.266H362.402z"/>
			<rect x="346.027" y="199.449" style="fill:#FE4A1B;" width="16.375" height="4.266"/>
		</g>
		<g>
			<rect x="381.757" y="207.553" style="fill:#4ABDAD;" width="37.091" height="2.797"/>
			<rect x="381.757" y="205.927" style="fill:#FFFFFF;" width="37.091" height="1.626"/>
			<path style="fill:#4ABDAD;" d="M418.847,197.655v8.271h-37.091v-8.271H418.847z M400.799,203.715v-4.266h-16.375v4.266H400.799z"
				/>
			<rect x="384.424" y="199.449" style="fill:#FE4A1B;" width="16.375" height="4.266"/>
		</g>
		<g>
			<rect x="361.537" y="194.858" style="fill:#FE4A1B;" width="37.091" height="2.797"/>
			<rect x="361.537" y="193.232" style="fill:#FFFFFF;" width="37.091" height="1.626"/>
			<path style="fill:#FE4A1B;" d="M398.628,184.96v8.271h-37.091v-8.271H398.628z M380.58,191.02v-4.266h-16.375v4.266H380.58z"/>
			<rect x="364.205" y="186.754" style="fill:#2A2B3F;" width="16.375" height="4.266"/>
		</g>
	</g>
	<g>
		<path style="fill:#FE4A1B;" d="M409.248,269.379v5.676h-36.048l11.575-5.676H409.248z M404.888,273.085v-1.554H389.18v1.554
			H404.888z"/>
		<polygon style="fill:#FFFFFF;" points="409.248,257.383 409.248,269.379 384.775,269.379 		"/>
		<path style="fill:#F6B731;" d="M384.775,269.379l-11.575,5.676v-17.673h36.048L384.775,269.379z M387.95,265.139v-1.374h-11.803
			v1.374H387.95z M384.258,262.564v-3.313h-8.112v3.313H384.258z"/>
		<rect x="389.18" y="271.53" style="fill:#F6B731;" width="15.707" height="1.554"/>
		<rect x="376.147" y="263.766" style="fill:#2A2B3F;" width="11.803" height="1.374"/>
		<rect x="376.147" y="259.251" style="fill:#2A2B3F;" width="8.112" height="3.313"/>
	</g>
	<g>
		<path style="fill:#FE4A1B;" d="M370.22,269.379v5.676h-36.048l11.576-5.676H370.22z M365.86,273.085v-1.554h-15.707v1.554H365.86z
			"/>
		<polygon style="fill:#FFFFFF;" points="370.22,257.383 370.22,269.379 345.747,269.379 		"/>
		<path style="fill:#F6B731;" d="M345.747,269.379l-11.576,5.676v-17.673h36.048L345.747,269.379z M348.922,265.139v-1.374h-11.803
			v1.374H348.922z M345.23,262.564v-3.313h-8.112v3.313H345.23z"/>
		<rect x="350.152" y="271.53" style="fill:#F6B731;" width="15.707" height="1.554"/>
		<rect x="337.119" y="263.766" style="fill:#2A2B3F;" width="11.803" height="1.374"/>
		<rect x="337.119" y="259.251" style="fill:#2A2B3F;" width="8.112" height="3.313"/>
	</g>
	<g>
		<path style="fill:#FE4A1B;" d="M389.152,251.706v5.676h-36.048l11.576-5.676H389.152z M384.792,255.412v-1.554h-15.707v1.554
			H384.792z"/>
		<polygon style="fill:#FFFFFF;" points="389.152,239.71 389.152,251.706 364.68,251.706 		"/>
		<path style="fill:#F6B731;" d="M364.68,251.706l-11.576,5.676V239.71h36.048L364.68,251.706z M367.854,247.467v-1.374h-11.803
			v1.374H367.854z M364.163,244.892v-3.313h-8.112v3.313H364.163z"/>
		<rect x="369.085" y="253.858" style="fill:#F6B731;" width="15.707" height="1.554"/>
		<rect x="356.051" y="246.093" style="fill:#2A2B3F;" width="11.803" height="1.374"/>
		<rect x="356.051" y="241.579" style="fill:#2A2B3F;" width="8.112" height="3.313"/>
	</g>
	<g>
		<polygon style="fill:#FFFFFF;" points="121.535,275.055 121.547,248.906 118.611,239.713 66.771,239.691 63.826,248.878 
			63.814,275.028 		"/>
		<circle style="fill:#FE4A1B;" cx="92.063" cy="258.496" r="14.341"/>
		<path style="fill:#383A4C;" d="M108.26,239.71l-4.492-0.002l0.003-5.387c0-0.62-0.503-1.124-1.123-1.124l-19.906-0.009
			c-0.619,0-1.123,0.503-1.124,1.123l-0.003,5.387l-4.492-0.002l0.003-5.387c0.001-3.096,2.522-5.614,5.618-5.613l19.906,0.009
			c3.096,0.001,5.614,2.522,5.613,5.618L108.26,239.71z"/>
		<rect x="89.633" y="249.843" style="fill:#FFFFFF;" width="4.842" height="18.02"/>
		
			<rect x="89.634" y="249.486" transform="matrix(4.766432e-04 -1 1 4.766432e-04 -166.4851 350.4276)" style="fill:#FFFFFF;" width="4.842" height="18.02"/>
	</g>
	<g>
		<path style="fill:#383A4C;" d="M202.643,275.055h-94.041v-2.957c0-2.941,2.384-5.326,5.326-5.326h83.389
			c2.941,0,5.326,2.384,5.326,5.326V275.055z"/>
		<rect x="117.205" y="259.746" style="fill:#E0DDE3;" width="68.393" height="7.026"/>
		<rect x="142.276" y="236.58" style="fill:#383A4C;" width="10.605" height="23.166"/>
		<path style="fill:#383A4C;" d="M179.968,249.953h-62.273c-1.795,0-3.25-1.455-3.25-3.25v-38.79c0-1.795,1.455-3.25,3.25-3.25
			h62.273c1.795,0,3.25,1.455,3.25,3.25v38.79C183.217,248.498,181.763,249.953,179.968,249.953z"/>
		<path style="fill:#A2F4E4;" d="M175.91,246.211h-54.557c-1.795,0-3.25-1.455-3.25-3.25v-31.485c0-1.795,1.455-3.25,3.25-3.25
			h54.557c1.795,0,3.25,1.455,3.25,3.25v31.485C179.159,244.756,177.704,246.211,175.91,246.211z"/>
		<rect x="122.94" y="225.948" style="fill:#FFFFFF;" width="19.236" height="15.583"/>
		<rect x="122.94" y="211.582" style="fill:#383A4C;" width="50.402" height="3.815"/>
		<rect x="124.564" y="227.733" style="fill:#FE4A1B;" width="5.519" height="11.769"/>
		<rect x="146.112" y="227.043" style="fill:#383A4C;" width="25.404" height="1.368"/>
		<rect x="146.112" y="229.841" style="fill:#383A4C;" width="25.404" height="1.617"/>
		<rect x="146.112" y="233.261" style="fill:#383A4C;" width="25.404" height="1.368"/>
		<rect x="146.112" y="236.059" style="fill:#383A4C;" width="25.404" height="1.617"/>
		<rect x="146.112" y="239.306" style="fill:#383A4C;" width="17.328" height="1.617"/>
	</g>
	<g>
		<g>
			<rect x="385.359" y="107.362" style="fill:#2A2B3F;" width="7" height="5.47"/>
			<polygon style="fill:#FFFFFF;" points="392.359,97.822 392.359,107.362 385.359,107.362 380.349,107.362 370.909,107.362 
				370.909,97.822 380.349,97.822 385.359,97.822 			"/>
			<path style="fill:#2A2B3F;" d="M392.359,97.822h-7v-10.1h1.31c0,0,0.03,2.44,3.04,3.6
				C392.349,92.352,392.359,97.742,392.359,97.822z"/>
			<polygon style="fill:#1CAF96;" points="389.019,82.242 389.019,87.722 386.669,87.722 385.359,87.722 385.359,82.242 			"/>
			<rect x="380.349" y="107.362" style="fill:#383A4C;" width="5.01" height="5.47"/>
			<rect x="380.349" y="87.722" style="fill:#383A4C;" width="5.01" height="10.1"/>
			<polygon style="fill:#4ABDAD;" points="385.359,82.242 385.359,87.722 380.349,87.722 377.899,87.722 377.899,82.242 			"/>
			<rect x="370.909" y="107.362" style="fill:#2A2B3F;" width="9.44" height="5.47"/>
			<path style="fill:#2A2B3F;" d="M380.349,87.722v10.1h-9.44c0-0.16,0.02-5.48,2.64-6.5c3.01-1.16,3.05-3.6,3.05-3.6h1.3H380.349z"
				/>
			<polygon style="fill:#1CAF96;" points="377.899,82.242 377.899,87.722 376.599,87.722 374.239,87.722 374.239,82.242 			"/>
		</g>
		<g>
			<rect x="359.518" y="100.502" style="fill:#F6B731;" width="7" height="12.33"/>
			<polygon style="fill:#FFFFFF;" points="366.518,80.962 366.518,100.502 359.518,100.502 354.518,100.502 345.068,100.502 
				345.068,80.962 354.518,80.962 359.518,80.962 			"/>
			<path style="fill:#F6B731;" d="M366.518,80.962h-7v-10.1h1.31c0,0,0.04,2.44,3.05,3.6
				C366.508,75.492,366.518,80.882,366.518,80.962z"/>
			<polygon style="fill:#FE4A1B;" points="363.188,65.382 363.188,70.862 360.828,70.862 359.518,70.862 359.518,65.382 			"/>
			<rect x="354.518" y="100.502" style="fill:#FFC55F;" width="5" height="12.33"/>
			<rect x="354.518" y="70.862" style="fill:#FFC55F;" width="5" height="10.1"/>
			<polygon style="fill:#C1391E;" points="359.518,65.382 359.518,70.862 354.518,70.862 352.068,70.862 352.068,65.382 			"/>
			<rect x="345.068" y="100.502" style="fill:#F6B731;" width="9.45" height="12.33"/>
			<path style="fill:#F6B731;" d="M354.518,70.862v10.1h-9.45c0-0.08,0.01-5.47,2.64-6.5c3.01-1.16,3.05-3.6,3.05-3.6h1.31H354.518z
				"/>
			<polygon style="fill:#FE4A1B;" points="352.068,65.382 352.068,70.862 350.758,70.862 348.398,70.862 348.398,65.382 			"/>
		</g>
		<rect x="308.384" y="112.832" style="fill:#FFFFFF;" width="111.895" height="5.655"/>
		<g>
			<rect x="410.135" y="107.362" style="fill:#2A2B3F;" width="7" height="5.47"/>
			<polygon style="fill:#FFFFFF;" points="417.135,97.822 417.135,107.362 410.135,107.362 405.125,107.362 395.685,107.362 
				395.685,97.822 405.125,97.822 410.135,97.822 			"/>
			<path style="fill:#2A2B3F;" d="M417.135,97.822h-7v-10.1h1.31c0,0,0.03,2.44,3.04,3.6
				C417.125,92.352,417.135,97.742,417.135,97.822z"/>
			<polygon style="fill:#1CAF96;" points="413.795,82.242 413.795,87.722 411.445,87.722 410.135,87.722 410.135,82.242 			"/>
			<rect x="405.125" y="107.362" style="fill:#383A4C;" width="5.01" height="5.47"/>
			<rect x="405.125" y="87.722" style="fill:#383A4C;" width="5.01" height="10.1"/>
			<polygon style="fill:#4ABDAD;" points="410.135,82.242 410.135,87.722 405.125,87.722 402.675,87.722 402.675,82.242 			"/>
			<rect x="395.685" y="107.362" style="fill:#2A2B3F;" width="9.44" height="5.47"/>
			<path style="fill:#2A2B3F;" d="M405.125,87.722v10.1h-9.44c0-0.16,0.02-5.48,2.64-6.5c3.01-1.16,3.05-3.6,3.05-3.6h1.3H405.125z"
				/>
			<polygon style="fill:#1CAF96;" points="402.675,82.242 402.675,87.722 401.375,87.722 399.015,87.722 399.015,82.242 			"/>
		</g>
		<g>
			<rect x="331.282" y="100.502" style="fill:#F6B731;" width="7" height="12.33"/>
			<polygon style="fill:#FFFFFF;" points="338.282,80.962 338.282,100.502 331.282,100.502 326.282,100.502 316.832,100.502 
				316.832,80.962 326.282,80.962 331.282,80.962 			"/>
			<path style="fill:#F6B731;" d="M338.282,80.962h-7v-10.1h1.31c0,0,0.04,2.44,3.05,3.6
				C338.272,75.492,338.282,80.882,338.282,80.962z"/>
			<polygon style="fill:#FE4A1B;" points="334.952,65.382 334.952,70.862 332.592,70.862 331.282,70.862 331.282,65.382 			"/>
			<rect x="326.282" y="100.502" style="fill:#FFC55F;" width="5" height="12.33"/>
			<rect x="326.282" y="70.862" style="fill:#FFC55F;" width="5" height="10.1"/>
			<polygon style="fill:#C1391E;" points="331.282,65.382 331.282,70.862 326.282,70.862 323.832,70.862 323.832,65.382 			"/>
			<rect x="316.832" y="100.502" style="fill:#F6B731;" width="9.45" height="12.33"/>
			<path style="fill:#F6B731;" d="M326.282,70.862v10.1h-9.45c0-0.08,0.01-5.47,2.64-6.5c3.01-1.16,3.05-3.6,3.05-3.6h1.31H326.282z
				"/>
			<polygon style="fill:#FE4A1B;" points="323.832,65.382 323.832,70.862 322.522,70.862 320.162,70.862 320.162,65.382 			"/>
		</g>
	</g>
	<g>
		<g>
			<rect x="327.265" y="145.538" style="fill:#4ABDAD;" width="21.45" height="26.04"/>
			<path style="fill:#FFFFFF;" d="M348.715,145.538h-21.45c0-3.22,2.61-5.83,5.83-5.83h0.85h8.36h0.58
				C346.105,139.708,348.715,142.318,348.715,145.538z"/>
			<polygon style="fill:#FFFFFF;" points="345.095,130.098 346.385,132.798 344.595,132.798 343.445,131.788 339.535,134.038 
				339.405,134.038 339.405,130.098 340.585,130.098 			"/>
			<polygon style="fill:#FE4A1B;" points="342.305,136.978 342.305,139.708 333.945,139.708 333.945,136.978 336.845,136.978 
				339.405,136.978 			"/>
			<polygon style="fill:#FE4A1B;" points="340.585,127.638 340.585,130.098 339.405,130.098 336.845,130.098 335.525,130.098 
				335.525,127.638 			"/>
			<polygon style="fill:#FFFFFF;" points="339.405,134.038 339.405,136.978 336.845,136.978 336.845,130.098 339.405,130.098 			"/>
		</g>
		<rect x="308.384" y="171.578" style="fill:#FFFFFF;" width="111.895" height="6.277"/>
		<g>
			<rect x="352.068" y="145.538" style="fill:#4ABDAD;" width="21.45" height="26.04"/>
			<path style="fill:#FFFFFF;" d="M373.518,145.538h-21.45c0-3.22,2.61-5.83,5.83-5.83h0.85h8.36h0.58
				C370.908,139.708,373.518,142.318,373.518,145.538z"/>
			<polygon style="fill:#FFFFFF;" points="369.898,130.098 371.188,132.798 369.398,132.798 368.248,131.788 364.338,134.038 
				364.208,134.038 364.208,130.098 365.388,130.098 			"/>
			<polygon style="fill:#FE4A1B;" points="367.108,136.978 367.108,139.708 358.748,139.708 358.748,136.978 361.648,136.978 
				364.208,136.978 			"/>
			<polygon style="fill:#FE4A1B;" points="365.388,127.638 365.388,130.098 364.208,130.098 361.648,130.098 360.328,130.098 
				360.328,127.638 			"/>
			<polygon style="fill:#FFFFFF;" points="364.208,134.038 364.208,136.978 361.648,136.978 361.648,130.098 364.208,130.098 			"/>
		</g>
		<g>
			<path style="fill:#FE4A1B;" d="M409.553,162.777v8.802h-28.888l9.276-8.802H409.553z M406.059,168.523v-2.41h-12.588v2.41
				H406.059z"/>
			<polygon style="fill:#FFFFFF;" points="409.553,144.175 409.553,162.777 389.941,162.777 			"/>
			<path style="fill:#4ABDAD;" d="M389.941,162.777l-9.276,8.802v-27.403h28.888L389.941,162.777z M392.486,156.203v-2.13h-9.459
				v2.13H392.486z M389.527,152.21v-5.137h-6.501v5.137H389.527z"/>
			<rect x="393.472" y="166.112" style="fill:#F6B731;" width="12.588" height="2.41"/>
			<rect x="383.027" y="154.072" style="fill:#F6B731;" width="9.459" height="2.13"/>
			<rect x="383.027" y="147.072" style="fill:#1A7A6A;" width="6.501" height="5.137"/>
		</g>
	</g>
	<g>
		<g>
			<path style="fill:#FFFFFF;" d="M241.048,178.497c-1.496,0.772-31.399,16.11-62.76,11.544c0,0,3.046-8.151-8.335-14.205
				c-11.284-5.995-19.393,3.917-19.393,3.917c-11.372-7.397-20.384-18.334-26.959-32.677l20.769-9.911
				c5.912,12.953,14.169,21.853,24.679,26.549c26.519,11.864,61.011-5.434,61.347-5.613c5.63-2.937,12.582-0.752,15.52,4.878
				S246.676,175.55,241.048,178.497z"/>
			<path style="fill:#E0DDE3;" d="M169.953,175.836c11.382,6.053,8.335,14.205,8.335,14.205c-6.225-0.905-12.503-2.59-18.626-5.327
				c-3.19-1.428-6.221-3.083-9.102-4.961C150.56,179.753,158.668,169.84,169.953,175.836z"/>
			<path style="fill:#FFD1B7;" d="M144.37,137.165l-20.769,9.911c-2.923-6.346-5.356-13.362-7.307-21.038
				c-1.564-6.154,2.159-12.414,8.313-13.978c5.117-1.3,10.307,1.054,12.81,5.422l-4.887,8.217c-0.643,1.082-0.791,2.327-0.501,3.47
				c0.288,1.134,1.012,2.157,2.094,2.8c2.164,1.287,4.984,0.57,6.271-1.594l0.773-1.301
				C142.142,131.933,143.208,134.623,144.37,137.165z"/>
			<path style="fill:#FFD1B7;" d="M140.395,130.375c-1.287,2.164-4.107,2.88-6.271,1.594c-1.082-0.643-1.806-1.667-2.094-2.8
				c-0.291-1.144-0.143-2.388,0.501-3.47l4.887-8.217c0.503,0.883,0.905,1.854,1.168,2.891c0.773,3.043,1.636,5.95,2.583,8.702
				L140.395,130.375z"/>
			<g>
				
					<rect x="104.901" y="72.418" transform="matrix(0.4271 0.9042 -0.9042 0.4271 161.9444 -56.4033)" style="fill:#FE4A1B;" width="41.169" height="54.37"/>
				
					<rect x="107.465" y="73.646" transform="matrix(0.4271 0.9042 -0.9042 0.4271 161.218 -57.5536)" style="fill:#FFFFFF;" width="37.13" height="49.618"/>
				
					<rect x="133.548" y="91.082" transform="matrix(0.4271 0.9042 -0.9042 0.4271 181.7023 -55.0128)" style="fill:#E0DDE3;" width="1.438" height="49.618"/>
				
					<rect x="126.276" y="89.953" transform="matrix(0.4271 0.9042 -0.9042 0.4271 162.6197 -74.7461)" style="fill:#2A2B3F;" width="28.045" height="2.022"/>
				
					<rect x="120.241" y="92.804" transform="matrix(0.4271 0.9042 -0.9042 0.4271 161.7404 -67.6565)" style="fill:#2A2B3F;" width="28.045" height="2.022"/>
				
					<rect x="113.912" y="95.794" transform="matrix(0.4271 0.9042 -0.9042 0.4271 160.8181 -60.2208)" style="fill:#2A2B3F;" width="28.045" height="2.022"/>
				
					<rect x="107.878" y="98.645" transform="matrix(0.4271 0.9042 -0.9042 0.4271 159.9388 -53.1313)" style="fill:#2A2B3F;" width="28.045" height="2.022"/>
				
					<rect x="102.608" y="100.402" transform="matrix(0.4271 0.9042 -0.9042 0.4271 157.169 -45.2461)" style="fill:#2A2B3F;" width="23.368" height="2.022"/>
				
					<rect x="98.646" y="99.981" transform="matrix(0.4271 0.9042 -0.9042 0.4271 152.4465 -38.6332)" style="fill:#2A2B3F;" width="16.132" height="2.022"/>
				<path style="fill:#F6B731;" d="M152.45,99.997l-10.832-22.93c0,0,2.951-2.544,4.433,0.593c0,0,2.313-0.23,6.358,8.332
					c4.045,8.563,2.398,10.203,2.398,10.203C156.289,99.334,152.45,99.997,152.45,99.997z"/>
			</g>
			<path style="fill:#FFB091;" d="M146.923,119.399l-5.754,9.675c-0.947-2.752-1.809-5.659-2.583-8.702
				c-0.264-1.037-0.665-2.008-1.168-2.891l1.639-2.769c1.287-2.164,4.107-2.88,6.271-1.594c1.082,0.643,1.806,1.666,2.097,2.81
				C147.714,117.073,147.566,118.318,146.923,119.399z"/>
		</g>
		<path style="fill:#FFFFFF;" d="M332.58,229.67c-2.79,12.47,8.92,17.65,8.92,17.65c-4.11,12.93-12.27,24.52-24.35,34.67l-6-6.93
			h8.54v-35.12c0.64-2.03,1.12-4.09,1.44-6.19c1.09-7.09,0.33-14.18-1.44-20.84v-44.15c0-2.78-0.96-5.35-2.56-7.39
			c4.38,4.98,23.38,27.99,26.93,56.49C344.06,217.86,335.39,217.089,332.58,229.67z"/>
		<path style="fill:#FFFFFF;" d="M319.69,168.759v106.3h-33.12l2.29-6.95l19.18-58.28l-9.84-10.17l11.86-8.82l3.18-2.37
			l-11.43-29.99l-0.66-1.72h6.54c2.89,0,5.55,1.03,7.62,2.75c0.14,0.11,0.27,0.23,0.4,0.35c0.07,0.05,0.14,0.12,0.2,0.19
			c0.44,0.4,0.84,0.84,1.2,1.3c0.01,0.01,0.01,0.01,0.02,0.02C318.73,163.41,319.69,165.98,319.69,168.759z"/>
		<polygon style="fill:#E0DDE3;" points="301.155,156.755 313.245,188.465 298.205,199.655 308.045,209.825 286.575,275.055 
			293.695,156.755 		"/>
		<polygon style="fill:#1CAF96;" points="293.695,156.755 286.575,275.055 255.875,275.055 255.875,273.585 		"/>
		<polygon style="fill:#4ABDAD;" points="293.695,156.755 255.875,273.585 248.805,156.755 268.715,172.535 		"/>
		<polygon style="fill:#FFD1B7;" points="293.695,156.755 268.715,172.535 248.805,156.755 258.605,156.755 283.015,156.755 		"/>
		<polygon style="fill:#FFD1B7;" points="283.015,145.835 283.015,156.755 258.605,156.755 		"/>
		<path style="fill:#FFB091;" d="M283.015,145.835l-24.41,10.92v-5.44h1.99c1.51,0,2.88-0.61,3.87-1.61c1-0.99,1.61-2.36,1.61-3.87
			H283.015z"/>
		<path style="fill:#FFFFFF;" d="M255.875,273.585v1.47h-32.13v-106.3c0-6.6,5.4-12,12-12h6.4l-11.66,32.39l13.02,12.54l-8.27,10.86
			L255.875,273.585z"/>
		<polygon style="fill:#E0DDE3;" points="248.805,156.755 255.875,273.585 235.235,212.545 243.505,201.685 230.485,189.145 
			242.145,156.755 		"/>
		<g>
			<path style="fill:#141623;" d="M259.636,195.299c2.725,2.12,2.469,5.05,2.469,5.05h-8.439c0-3.014,2.18-5.05,2.18-5.05v-0.23
				h3.789V195.299z"/>
			<polygon style="fill:#E0DDE3;" points="260.811,192.582 260.811,195.069 259.636,195.069 255.846,195.069 254.961,195.069 
				254.961,192.582 256.008,192.582 			"/>
			<path style="fill:#383A4C;" d="M259.414,192.497l-3.406,0.085c-0.179-7.596-2.759-27.292-12.433-27.292
				c-9.665,0-11.939,19.679-11.998,27.267l-3.406-0.026c0.009-1.133,0.332-25.248,11.47-29.881c1.184-0.494,2.487-0.766,3.934-0.766
				c1.49,0,2.844,0.29,4.07,0.826C258.699,167.47,259.389,191.381,259.414,192.497z"/>
			<path style="fill:#1CAF96;" d="M247.672,158.784v3.866l-0.026,0.06c-1.226-0.536-2.58-0.826-4.07-0.826
				c-1.448,0-2.751,0.272-3.934,0.766v-3.866h1.652h4.709H247.672z"/>
			<rect x="241.293" y="156.408" style="fill:#383A4C;" width="4.709" height="2.376"/>
			<path style="fill:#141623;" d="M231.407,195.299c2.725,2.12,2.469,5.05,2.469,5.05h-8.439c0-3.014,2.18-5.05,2.18-5.05v-0.23
				h3.789V195.299z"/>
			<polygon style="fill:#E0DDE3;" points="232.591,192.582 232.591,195.069 231.407,195.069 227.618,195.069 226.732,195.069 
				226.732,192.582 			"/>
		</g>
		<g>
			<path style="fill:#383A4C;" d="M283.015,147.944h1.674c4.667,0,8.464,3.797,8.464,8.464v19.896h-3v-19.896
				c0-3.013-2.451-5.464-5.464-5.464h-1.674V147.944z"/>
			<g>
				<path style="fill:#383A4C;" d="M252.029,147.945v3h-1.68c-3.01,0-5.46,2.45-5.46,5.46h-3c0-4.66,3.8-8.46,8.46-8.46H252.029z"/>
			</g>
		</g>
		<g>
			<rect x="288.978" y="176.305" style="fill:#141623;" width="5.393" height="1.551"/>
			<polygon style="fill:#383A4C;" points="289.383,177.856 288.237,181.159 295.046,181.159 293.695,177.856 			"/>
			<rect x="287.355" y="181.159" style="fill:#FFFFFF;" width="8.573" height="2.213"/>
		</g>
		<g>
			<path style="fill:#FFFFFF;" d="M319.69,239.939v35.12h-8.54l-9.07-10.47C310.99,257.139,316.88,248.899,319.69,239.939z"/>
			<path style="fill:#E0DDE3;" d="M343.87,237.23c-0.53,3.46-1.32,6.82-2.37,10.09c0,0-11.71-5.18-8.92-17.65
				c2.81-12.58,11.48-11.81,11.48-11.81C344.84,224.1,344.88,230.6,343.87,237.23z"/>
			<path style="fill:#FFD1B7;" d="M317.15,281.989c-5.34,4.5-11.46,8.71-18.34,12.63c-5.52,3.14-12.54,1.21-15.69-4.31
				c-2.61-4.59-1.72-10.22,1.83-13.79l9.22,2.53c1.21,0.34,2.45,0.15,3.48-0.44c1.02-0.57,1.81-1.54,2.14-2.76
				c0.07-0.26,0.12-0.52,0.14-0.79c0.21-2.16-1.17-4.23-3.34-4.83l-1.46-0.4c2.5-1.7,4.81-3.44,6.95-5.24l9.07,10.47L317.15,281.989
				z"/>
			<path style="fill:#FFD1B7;" d="M296.593,270.229c2.427,0.666,3.867,3.195,3.201,5.623c-0.333,1.214-1.127,2.184-2.144,2.762
				c-1.025,0.584-2.265,0.771-3.479,0.438l-9.219-2.531c0.718-0.719,1.548-1.364,2.478-1.894c2.729-1.553,5.303-3.157,7.704-4.8
				L296.593,270.229z"/>
			<path style="fill:#FFB091;" d="M284.278,266.849l10.856,2.98c-2.402,1.643-4.975,3.246-7.704,4.8
				c-0.93,0.529-1.76,1.174-2.478,1.894l-3.104-0.845c-2.428-0.666-3.867-3.195-3.201-5.623c0.333-1.214,1.127-2.184,2.153-2.767
				C281.825,266.703,283.064,266.515,284.278,266.849z"/>
		</g>
		<g>
			<path style="fill:#FFD1B7;" d="M242.451,115.602c0.281-0.068,0.572-0.126,0.853-0.184v-0.01
				C243.023,115.466,242.732,115.524,242.451,115.602z"/>
			<path style="fill:#FFD1B7;" d="M230.402,77.051c-1.561,2.656-2.452,5.719-2.452,8.966v34.77c0.436-0.213,0.872-0.446,1.328-0.63
				c0.213-0.116,0.436-0.213,0.649-0.32h0.01c4.236-1.958,8.433-3.335,12.514-4.236c0.281-0.077,0.572-0.136,0.853-0.194
				c-0.145-0.388-0.233-0.785-0.233-1.221v-3.024c0-1.89,1.58-3.441,3.519-3.441h4.381v-9.645c0-0.611,0.165-1.192,0.446-1.706
				c0.174-0.3,0.388-0.591,0.63-0.834c0.669-0.659,1.599-1.066,2.627-1.066c2.036,0,3.683,1.638,3.683,3.606v14.783h0.911
				c0.901,0,1.677,0.514,2.007,1.279c14.618,0.863,24.98,5.923,24.98,5.923v-43.01H230.402z M234.415,86.289
				c0-1.028,0.863-1.871,1.919-1.871h9.548c1.047,0,1.9,0.843,1.9,1.871v0.494c0,1.018-0.853,1.861-1.9,1.861h-9.548
				c-1.057,0-1.919-0.843-1.919-1.861V86.289z M243.565,98.357c-0.669,0.998-1.832,1.667-3.16,1.667
				c-1.037,0-1.977-0.407-2.656-1.076c-0.679-0.659-1.095-1.58-1.095-2.588c0-0.494,0.097-0.96,0.291-1.386
				c-0.097-0.359-0.136-0.746-0.136-1.134c0-2.675,2.22-4.847,4.963-4.847c2.743,0,4.973,2.171,4.973,4.847
				c0,0.902-0.252,1.745-0.688,2.472C245.485,97.242,244.603,97.969,243.565,98.357z M275.03,98.425
				c-0.669,0.96-1.793,1.599-3.092,1.599c-2.094,0-3.771-1.638-3.771-3.664c0-0.572,0.136-1.105,0.388-1.59
				c-0.068-0.3-0.097-0.611-0.097-0.931c0-2.675,2.22-4.847,4.963-4.847c2.743,0,4.973,2.171,4.973,4.847
				C278.394,95.972,276.988,97.775,275.03,98.425z M279.373,86.783c0,1.018-0.853,1.861-1.89,1.861h-9.567
				c-1.037,0-1.9-0.843-1.9-1.861v-0.494c0-1.028,0.863-1.871,1.9-1.871h9.567c1.037,0,1.89,0.843,1.89,1.871V86.783z"/>
			<path style="fill:#2A2B3F;" d="M234.422,86.282v0.493c0,1.026,0.86,1.865,1.911,1.865h9.554c1.051,0,1.897-0.839,1.897-1.865
				v-0.493c0-1.026-0.846-1.865-1.897-1.865h-9.554C235.282,84.417,234.422,85.256,234.422,86.282z"/>
			<path style="fill:#33293D;" d="M236.947,94.97c-0.191,0.426-0.287,0.893-0.287,1.386c0,2.025,1.679,3.664,3.753,3.664
				c1.324,0,2.484-0.666,3.153-1.666c-0.56,0.213-1.16,0.333-1.788,0.333C239.431,98.687,237.466,97.102,236.947,94.97z"/>
			<path style="fill:#FFB091;" d="M236.811,93.837c0,0.386,0.041,0.773,0.136,1.133c0.546-1.332,1.897-2.279,3.467-2.279
				c2.088,0,3.767,1.639,3.767,3.664c0,0.733-0.218,1.426-0.614,1.999c1.856-0.693,3.18-2.452,3.18-4.517
				c0-2.678-2.225-4.85-4.968-4.85C239.035,88.987,236.811,91.159,236.811,93.837z"/>
			<path style="fill:#33293D;" d="M240.414,92.691c-1.57,0-2.921,0.946-3.467,2.279c0.519,2.132,2.484,3.718,4.831,3.718
				c0.628,0,1.228-0.12,1.788-0.333c0.396-0.573,0.614-1.266,0.614-1.999C244.18,94.33,242.502,92.691,240.414,92.691z"/>
			<path style="fill:#FFD1B7;" d="M244.108,115.262c-3.751,0.792-8.075,2.038-12.184,3.721c3.56-1.499,7.085-2.622,10.526-3.382
				c0.281-0.077,0.572-0.136,0.853-0.194c-0.145-0.388-0.233-0.785-0.233-1.221v-1.338c0,0.446,0.087,0.843,0.233,1.231
				C243.488,114.526,243.759,114.933,244.108,115.262z"/>
			<path style="fill:#FFD1B7;" d="M229.936,119.838c0.654-0.297,1.319-0.58,1.988-0.854
				C231.262,119.263,230.601,119.531,229.936,119.838z"/>
			<path style="fill:#FFFFFF;" d="M242.352,125.03c0,0-0.177,11.899,13.88,11.899c14.057,0,14.139-11.899,14.139-11.899H242.352z"/>
			<path style="fill:#141623;" d="M286.259,77.048v43.01c0,0-10.362-5.06-24.98-5.923c0.136,0.262,0.204,0.553,0.204,0.872
				c0,0.242-0.039,0.465-0.116,0.669c-0.271,0.863-1.105,1.483-2.094,1.483h-4.692c-0.727,0-1.376-0.349-1.774-0.882h-6.214
				c-0.969,0-1.842-0.388-2.482-1.018c-4.372,0.921-9.5,2.452-14.182,4.575c-0.213,0.107-0.436,0.204-0.649,0.32
				c-0.436,0.204-0.892,0.417-1.328,0.64v8.298c0,9.49,7.532,17.322,17.051,18.088c-0.058,0.252-0.068,0.485-0.068,0.746
				c0,1.532,0.649,2.918,1.677,3.926c1.037,1.018,2.452,1.628,4.023,1.628h16.421c2.957,0,5.39-2.2,5.69-5.002
				c0.01-0.184,0.029-0.368,0.029-0.553c0-0.233-0.019-0.475-0.039-0.678c-0.029-0.233-0.068-0.446-0.126-0.64
				c1.163-0.048,2.249-0.165,3.276-0.349c0.504-0.078,0.998-0.184,1.473-0.31c0.475-0.116,0.94-0.252,1.386-0.397
				c0.456-0.145,0.892-0.31,1.299-0.485c0.427-0.165,0.824-0.359,1.221-0.553c1.347-0.698,2.53-1.512,3.567-2.414
				c0.291-0.271,0.582-0.533,0.853-0.805c5.797-5.845,6.058-14.443,6.058-14.443V77.048H286.259z M256.229,136.934
				c-14.055,0-13.881-11.904-13.881-11.904h28.024C270.371,125.03,270.294,136.934,256.229,136.934z"/>
			<path style="fill:#FFB091;" d="M261.482,115.007c0,0.242-0.039,0.465-0.116,0.669c-0.271,0.863-1.105,1.483-2.094,1.483h-4.692
				c-0.727,0-1.376-0.349-1.774-0.882h-6.214c-0.969,0-1.842-0.388-2.482-1.018c-0.359-0.33-0.63-0.727-0.805-1.183
				c-0.155-0.388-0.233-0.785-0.233-1.221v-1.696c0-1.89,1.58-3.441,3.519-3.441h4.381v-9.645c0-0.969,0.427-1.881,1.076-2.54
				c0.669-0.659,1.599-1.066,2.627-1.066c2.036,0,3.684,1.638,3.684,3.606v14.783h0.911c0.901,0,1.677,0.514,2.007,1.28
				C261.415,114.396,261.482,114.687,261.482,115.007z"/>
			<path style="fill:#2A2B3F;" d="M266.017,86.282v0.493c0,1.026,0.86,1.865,1.897,1.865h9.567c1.037,0,1.897-0.839,1.897-1.865
				v-0.493c0-1.026-0.86-1.865-1.897-1.865h-9.567C266.877,84.417,266.017,85.256,266.017,86.282z"/>
			<path style="fill:#33293D;" d="M268.556,94.77c-0.246,0.48-0.382,1.013-0.382,1.586c0,2.025,1.679,3.664,3.767,3.664
				c1.297,0,2.429-0.64,3.098-1.599c-0.505,0.173-1.037,0.266-1.61,0.266C271.012,98.687,268.992,96.995,268.556,94.77z"/>
			<path style="fill:#FFB091;" d="M268.46,93.837c0,0.32,0.027,0.626,0.096,0.933c0.601-1.226,1.883-2.079,3.385-2.079
				c2.074,0,3.753,1.639,3.753,3.664c0,0.76-0.246,1.479-0.655,2.065c1.952-0.653,3.357-2.452,3.357-4.584
				c0-2.678-2.225-4.85-4.968-4.85S268.46,91.159,268.46,93.837z"/>
			<path style="fill:#33293D;" d="M271.94,92.691c-1.501,0-2.784,0.853-3.385,2.079c0.437,2.225,2.457,3.917,4.872,3.917
				c0.573,0,1.105-0.093,1.61-0.266c0.409-0.586,0.655-1.306,0.655-2.065C275.694,94.33,274.015,92.691,271.94,92.691z"/>
			<path style="fill:#FFA197;" d="M278.734,108.773c0,3.251-2.698,5.902-6.028,5.902c-3.338,0-6.044-2.651-6.044-5.902
				c0-3.251,2.706-5.886,6.044-5.886C276.036,102.887,278.734,105.522,278.734,108.773z"/>
			<path style="fill:#FFA197;" d="M235.179,108.276c0.008,0.158,0.016,0.331,0.016,0.497c0,3.251-2.683,5.902-6.028,5.902
				c-0.489,0-0.955-0.063-1.412-0.174c-2.643-0.623-4.608-2.951-4.608-5.728c0-2.777,1.965-5.097,4.608-5.712
				c0.458-0.11,0.923-0.174,1.412-0.174C232.346,102.887,234.918,105.262,235.179,108.276z"/>
			<path style="fill:#2A2B3F;" d="M296.437,78.23v50.881c0,9.965-8.365,18.136-18.582,18.136h-5.118
				c-0.048-0.233-0.068-0.446-0.126-0.64c1.163-0.048,2.249-0.165,3.276-0.349c0.504-0.078,0.998-0.184,1.473-0.31
				c0.475-0.116,0.94-0.252,1.386-0.397c0.456-0.145,0.892-0.31,1.299-0.485c0.427-0.165,0.824-0.359,1.221-0.553
				c1.347-0.679,2.53-1.512,3.567-2.414c0.291-0.252,0.582-0.523,0.853-0.805c5.797-5.845,6.058-14.443,6.058-14.443V77.048h-68.513
				c0,0-13.571-25.193,4.721-27.946c18.292-2.763,13.745,15.073,13.745,15.073h40.344c3.742,0,7.163,1.406,9.713,3.693
				C294.634,70.456,296.437,74.13,296.437,78.23z"/>
			<path style="fill:#FFD1B7;" d="M301.788,106.147v6.261c0,4.333-3.527,7.886-7.859,7.886V98.261
				C298.261,98.261,301.788,101.814,301.788,106.147z M296.716,113.94h0.238c0.502,0,0.911-0.409,0.911-0.898v-8.705
				c0-0.489-0.409-0.898-0.911-0.898h-0.238c-0.502,0-0.911,0.409-0.911,0.898v8.705C295.805,113.531,296.214,113.94,296.716,113.94
				z"/>
			<path style="fill:#FFC0A6;" d="M295.805,104.337v8.705c0,0.489,0.409,0.898,0.911,0.898h0.238c0.502,0,0.911-0.409,0.911-0.898
				v-8.705c0-0.489-0.409-0.898-0.911-0.898h-0.238C296.214,103.439,295.805,103.848,295.805,104.337z"/>
			<ellipse style="fill:#FFFFFF;" cx="270.402" cy="95.835" rx="1.257" ry="1.227"/>
			<ellipse style="fill:#FFFFFF;" cx="239.011" cy="95.835" rx="1.257" ry="1.227"/>
			<path style="fill:#DA7A5A;" d="M255.381,115.808h4.436c0.121,0,0.22-0.099,0.22-0.22v-0.458c0-0.121-0.099-0.22-0.22-0.22h-4.436
				c-0.121,0-0.22,0.099-0.22,0.22v0.458C255.161,115.709,255.26,115.808,255.381,115.808z"/>
		</g>
	</g>
	<g>
		<ellipse style="fill:#A2F4E4;" cx="244.05" cy="439.005" rx="171.063" ry="14.562"/>
		<g>
			<rect x="306.173" y="275.055" style="fill:#1CAF96;" width="108.94" height="18.34"/>
			<polygon style="fill:#4ABDAD;" points="306.173,275.055 306.173,293.395 69.843,293.395 61.383,293.395 61.383,275.055 			"/>
			<rect x="89.267" y="293.395" style="fill:#FFFFFF;" width="325.846" height="145.61"/>
			<rect x="306.173" y="293.395" style="fill:#E0DDE3;" width="108.94" height="145.61"/>
			<rect x="89.267" y="325.596" style="fill:#4ABDAD;" width="216.906" height="72.23"/>
			<polygon style="fill:#E0DDE3;" points="89.267,293.395 306.173,325.596 306.173,293.395 			"/>
			<rect x="89.267" y="347.169" style="fill:#FFFFFF;" width="216.906" height="30.742"/>
		</g>
	</g>
</g>
<g id="DESIGNED_BY_FREEPIK">
	<g>
		<g id="XMLID_58_">
			<g id="XMLID_82_">
				<path id="XMLID_98_" style="fill:#112129;" d="M260.104,471.331c-0.432,0.443-0.803,0.931-1.108,1.453l-0.465-0.241
					c-0.067-0.298-0.349-0.503-0.659-0.466c-0.331,0.039-0.568,0.339-0.529,0.67c0.039,0.331,0.339,0.568,0.67,0.529
					c0.066-0.008,0.127-0.026,0.184-0.052l0.451,0.234c-0.251,0.554-0.433,1.139-0.539,1.744l0.746,0.132
					c0.23-1.306,0.85-2.507,1.792-3.473L260.104,471.331z"/>
				<path id="XMLID_97_" style="fill:#112129;" d="M265.592,469.029c-0.171,0-0.341,0.006-0.51,0.017l-0.074-0.626
					c0.188-0.149,0.296-0.389,0.266-0.645c-0.046-0.393-0.402-0.674-0.795-0.628c-0.393,0.046-0.674,0.402-0.628,0.795
					c0.03,0.254,0.189,0.461,0.404,0.564l0.074,0.624c-0.714,0.116-1.403,0.332-2.06,0.646l0.327,0.684
					c0.934-0.447,1.942-0.673,2.995-0.673c0.496,0,0.993,0.053,1.475,0.158l0.161-0.741
					C266.692,469.087,266.142,469.029,265.592,469.029z"/>
				<path id="XMLID_96_" style="fill:#112129;" d="M272.194,471.576c0.331-0.04,0.566-0.341,0.526-0.672
					c-0.04-0.331-0.341-0.566-0.672-0.526c-0.309,0.038-0.535,0.304-0.53,0.609l-0.416,0.363c-0.418-0.43-0.889-0.813-1.408-1.139
					l-0.404,0.641c1.134,0.715,2.021,1.726,2.563,2.925l0.69-0.313c-0.251-0.554-0.568-1.072-0.942-1.545l0.402-0.351
					C272.065,471.581,272.129,471.584,272.194,471.576z"/>
				<path id="XMLID_95_" style="fill:#112129;" d="M265.044,479.237c-0.386,0.023-0.775,0.035-1.157,0.035
					c-0.88,0-1.733-0.061-2.478-0.179c-0.39-0.062-0.846-0.155-1.27-0.292c1.046,1.861,3.069,3.125,5.388,3.125
					c2.855,0,5.262-1.916,5.95-4.504c-0.682,0.449-1.505,0.825-2.459,1.123C267.839,478.912,266.463,479.152,265.044,479.237z"/>
				<path id="XMLID_88_" style="fill:#112129;" d="M265.592,470.545c-3.352,0-6.08,2.666-6.08,5.943
					c0,0.426,0.046,0.849,0.137,1.261c0.673,0.483,2.706,0.89,5.348,0.731c2.879-0.173,5.297-0.957,6.672-2.159
					c-0.006-0.195-0.021-0.39-0.045-0.582C271.244,472.778,268.65,470.545,265.592,470.545z M263.432,477.06
					c-1.02,0-1.85-0.83-1.85-1.85c0-1.02,0.83-1.85,1.85-1.85c1.02,0,1.85,0.83,1.85,1.85
					C265.282,476.23,264.452,477.06,263.432,477.06z M268.17,476.151c-0.75,0-1.36-0.61-1.36-1.36c0-0.75,0.61-1.361,1.36-1.361
					c0.75,0,1.361,0.61,1.361,1.361C269.53,475.541,268.92,476.151,268.17,476.151z"/>
			</g>
			<path id="XMLID_80_" style="fill:#112129;" d="M281.595,472.412c-0.295-0.116-0.805-0.309-1.382-0.237
				c-0.551,0.069-0.844,0.341-0.844,1.007v0.866h2.228v1.717h-2.228v5.455h-1.932v-5.455h-1.34v-1.717h1.34v-0.888
				c0-1.68,0.896-2.783,2.568-2.783c0.643,0,1.157,0.122,1.59,0.308L281.595,472.412z"/>
			<path id="XMLID_78_" style="fill:#112129;" d="M286.298,475.744c-0.177-0.03-0.358-0.046-0.526-0.046
				c-0.895,0-1.51,0.548-1.51,1.613v3.908h-1.932v-7.172h1.873v0.785c0.451-0.673,1.14-0.977,2.021-0.977
				c0.414,0,0.848,0.128,1.094,0.337L286.298,475.744z"/>
			<path id="XMLID_75_" style="fill:#112129;" d="M293.965,477.622c0,0.222-0.015,0.489-0.037,0.651h-5.085
				c0.207,1.036,0.933,1.488,1.843,1.488c0.622,0,1.295-0.252,1.813-0.688l1.133,1.243c-0.814,0.748-1.85,1.088-3.057,1.088
				c-2.198,0-3.723-1.495-3.723-3.753c0-2.258,1.48-3.797,3.627-3.797C292.544,473.855,293.958,475.387,293.965,477.622z
				 M288.851,476.956h3.175c-0.177-0.918-0.733-1.436-1.562-1.436C289.554,475.52,289.021,476.068,288.851,476.956z"/>
			<path id="XMLID_72_" style="fill:#112129;" d="M301.618,477.622c0,0.222-0.015,0.489-0.037,0.651h-5.085
				c0.207,1.036,0.932,1.488,1.843,1.488c0.622,0,1.295-0.252,1.814-0.688l1.132,1.243c-0.814,0.748-1.85,1.088-3.057,1.088
				c-2.198,0-3.723-1.495-3.723-3.753c0-2.258,1.48-3.797,3.627-3.797C300.197,473.855,301.611,475.387,301.618,477.622z
				 M296.504,476.956h3.175c-0.178-0.918-0.733-1.436-1.562-1.436C297.207,475.52,296.674,476.068,296.504,476.956z"/>
			<path id="XMLID_69_" style="fill:#112129;" d="M309.964,477.629c0,2.154-1.495,3.775-3.471,3.775
				c-0.962,0-1.643-0.378-2.109-0.933v3.708h-1.924v-10.133h1.887v0.792c0.466-0.585,1.155-0.984,2.139-0.984
				C308.469,473.855,309.964,475.476,309.964,477.629z M304.287,477.629c0,1.132,0.747,1.976,1.843,1.976
				c1.14,0,1.85-0.881,1.85-1.976c0-1.095-0.711-1.976-1.85-1.976C305.035,475.653,304.287,476.497,304.287,477.629z"/>
			<path id="XMLID_66_" style="fill:#112129;" d="M313.067,471.701c0,0.696-0.54,1.229-1.236,1.229
				c-0.696,0-1.229-0.533-1.229-1.229c0-0.696,0.533-1.243,1.229-1.243C312.527,470.457,313.067,471.005,313.067,471.701z
				 M312.809,481.219h-1.932v-7.172h1.932V481.219z"/>
			<path id="XMLID_64_" style="fill:#112129;" d="M316.032,476.601l2.702-2.554h2.368l-3.479,3.375l3.501,3.797h-2.376l-2.716-2.901
				v2.901H314.1v-10.658h1.932V476.601z"/>
		</g>
		<g>
			<path style="fill:#112129;" d="M184.412,481.154v-1.055c-0.527,0.718-1.391,1.23-2.387,1.23c-1.846,0-3.149-1.406-3.149-3.706
				c0-2.256,1.289-3.721,3.149-3.721c0.952,0,1.816,0.469,2.387,1.245v-3.765h1.099v9.77H184.412z M184.412,479.235v-3.208
				c-0.395-0.615-1.245-1.143-2.124-1.143c-1.421,0-2.27,1.172-2.27,2.739c0,1.567,0.85,2.724,2.27,2.724
				C183.168,480.349,184.017,479.851,184.412,479.235z"/>
			<path style="fill:#112129;" d="M186.932,477.609c0-2.051,1.465-3.706,3.486-3.706c2.139,0,3.398,1.67,3.398,3.794v0.279h-5.727
				c0.088,1.333,1.025,2.446,2.549,2.446c0.805,0,1.626-0.322,2.182-0.894l0.527,0.718c-0.703,0.703-1.655,1.084-2.812,1.084
				C188.44,481.33,186.932,479.821,186.932,477.609z M190.403,474.812c-1.509,0-2.256,1.274-2.314,2.358h4.643
				C192.718,476.115,192.015,474.812,190.403,474.812z"/>
			<path style="fill:#112129;" d="M194.607,480.217l0.571-0.791c0.469,0.542,1.362,1.011,2.329,1.011c1.084,0,1.67-0.513,1.67-1.216
				c0-1.714-4.38-0.659-4.38-3.281c0-1.098,0.952-2.036,2.636-2.036c1.201,0,2.051,0.454,2.622,1.025l-0.513,0.762
				c-0.424-0.513-1.201-0.894-2.109-0.894c-0.967,0-1.567,0.483-1.567,1.113c0,1.552,4.38,0.527,4.38,3.281
				c0,1.187-0.952,2.138-2.783,2.138C196.306,481.33,195.325,480.978,194.607,480.217z"/>
			<path style="fill:#112129;" d="M201.477,472.336c0-0.41,0.337-0.747,0.732-0.747c0.41,0,0.747,0.337,0.747,0.747
				c0,0.41-0.337,0.732-0.747,0.732C201.814,473.068,201.477,472.746,201.477,472.336z M201.667,481.154v-7.075h1.099v7.075H201.667
				z"/>
			<path style="fill:#112129;" d="M204.582,482.97l0.556-0.82c0.586,0.703,1.289,0.967,2.3,0.967c1.172,0,2.27-0.571,2.27-2.124
				v-1.011c-0.513,0.718-1.377,1.26-2.373,1.26c-1.845,0-3.149-1.377-3.149-3.662c0-2.27,1.289-3.676,3.149-3.676
				c0.952,0,1.802,0.469,2.373,1.245v-1.069h1.098v6.87c0,2.344-1.641,3.076-3.369,3.076
				C206.237,484.025,205.417,483.791,204.582,482.97z M209.709,479.118v-3.091c-0.381-0.615-1.23-1.143-2.109-1.143
				c-1.421,0-2.27,1.128-2.27,2.695c0,1.553,0.849,2.695,2.27,2.695C208.478,480.275,209.328,479.733,209.709,479.118z"/>
			<path style="fill:#112129;" d="M217.413,481.154v-4.629c0-1.245-0.63-1.641-1.582-1.641c-0.865,0-1.685,0.527-2.095,1.099v5.17
				h-1.099v-7.075h1.099v1.025c0.498-0.586,1.465-1.201,2.519-1.201c1.48,0,2.256,0.747,2.256,2.285v4.966H217.413z"/>
			<path style="fill:#112129;" d="M219.932,477.609c0-2.051,1.465-3.706,3.486-3.706c2.139,0,3.398,1.67,3.398,3.794v0.279h-5.727
				c0.088,1.333,1.025,2.446,2.549,2.446c0.806,0,1.626-0.322,2.183-0.894l0.527,0.718c-0.703,0.703-1.655,1.084-2.812,1.084
				C221.441,481.33,219.932,479.821,219.932,477.609z M223.404,474.812c-1.509,0-2.256,1.274-2.314,2.358h4.643
				C225.718,476.115,225.015,474.812,223.404,474.812z"/>
			<path style="fill:#112129;" d="M233.35,481.154v-1.055c-0.527,0.718-1.392,1.23-2.388,1.23c-1.846,0-3.149-1.406-3.149-3.706
				c0-2.256,1.289-3.721,3.149-3.721c0.952,0,1.817,0.469,2.388,1.245v-3.765h1.098v9.77H233.35z M233.35,479.235v-3.208
				c-0.396-0.615-1.245-1.143-2.124-1.143c-1.421,0-2.27,1.172-2.27,2.739c0,1.567,0.849,2.724,2.27,2.724
				C232.105,480.349,232.954,479.851,233.35,479.235z"/>
			<path style="fill:#112129;" d="M239.692,481.154v-9.77h1.098v3.765c0.572-0.776,1.421-1.245,2.388-1.245
				c1.845,0,3.149,1.465,3.149,3.721c0,2.299-1.304,3.706-3.149,3.706c-0.996,0-1.86-0.513-2.388-1.23v1.055H239.692z
				 M242.9,480.349c1.436,0,2.285-1.157,2.285-2.724c0-1.568-0.85-2.739-2.285-2.739c-0.864,0-1.728,0.527-2.109,1.143v3.208
				C241.171,479.851,242.036,480.349,242.9,480.349z"/>
			<path style="fill:#112129;" d="M247.528,482.927c0.161,0.073,0.425,0.117,0.601,0.117c0.483,0,0.805-0.161,1.055-0.747
				l0.469-1.069l-2.959-7.148h1.187l2.358,5.8l2.344-5.8h1.201l-3.545,8.51c-0.425,1.025-1.143,1.421-2.08,1.435
				c-0.234,0-0.601-0.044-0.806-0.103L247.528,482.927z"/>
		</g>
	</g>
</g>
</svg>
